<mxfile host="app.diagrams.net" agent="Mozilla/5.0 (Windows NT 10.0; Win64; x64) AppleWebKit/537.36 (KHTML, like Gecko) Chrome/132.0.0.0 Safari/537.36" version="26.0.14">
  <diagram name="PÃ¡gina-1" id="7bZcIPwwd4ZotbpH0bIh">
    <mxGraphModel dx="530" dy="266" grid="1" gridSize="10" guides="1" tooltips="1" connect="1" arrows="1" fold="1" page="1" pageScale="1" pageWidth="850" pageHeight="1100" math="0" shadow="0">
      <root>
        <mxCell id="0" />
        <mxCell id="1" parent="0" />
        <mxCell id="1xlKALd2Ng0f2mb-iECT-3" value="" style="edgeStyle=orthogonalEdgeStyle;rounded=0;orthogonalLoop=1;jettySize=auto;html=1;" edge="1" parent="1" source="1xlKALd2Ng0f2mb-iECT-1" target="1xlKALd2Ng0f2mb-iECT-2">
          <mxGeometry relative="1" as="geometry" />
        </mxCell>
        <mxCell id="1xlKALd2Ng0f2mb-iECT-1" value="Inicio" style="ellipse;whiteSpace=wrap;html=1;" vertex="1" parent="1">
          <mxGeometry x="365" y="30" width="120" height="80" as="geometry" />
        </mxCell>
        <mxCell id="1xlKALd2Ng0f2mb-iECT-5" value="" style="edgeStyle=orthogonalEdgeStyle;rounded=0;orthogonalLoop=1;jettySize=auto;html=1;" edge="1" parent="1" source="1xlKALd2Ng0f2mb-iECT-2" target="1xlKALd2Ng0f2mb-iECT-4">
          <mxGeometry relative="1" as="geometry" />
        </mxCell>
        <mxCell id="1xlKALd2Ng0f2mb-iECT-2" value="Ingresar salario bruto" style="whiteSpace=wrap;html=1;" vertex="1" parent="1">
          <mxGeometry x="365" y="160" width="120" height="60" as="geometry" />
        </mxCell>
        <mxCell id="1xlKALd2Ng0f2mb-iECT-7" value="" style="edgeStyle=orthogonalEdgeStyle;rounded=0;orthogonalLoop=1;jettySize=auto;html=1;" edge="1" parent="1" source="1xlKALd2Ng0f2mb-iECT-4" target="1xlKALd2Ng0f2mb-iECT-6">
          <mxGeometry relative="1" as="geometry" />
        </mxCell>
        <mxCell id="1xlKALd2Ng0f2mb-iECT-12" value="" style="edgeStyle=orthogonalEdgeStyle;rounded=0;orthogonalLoop=1;jettySize=auto;html=1;" edge="1" parent="1" source="1xlKALd2Ng0f2mb-iECT-4" target="1xlKALd2Ng0f2mb-iECT-11">
          <mxGeometry relative="1" as="geometry" />
        </mxCell>
        <mxCell id="1xlKALd2Ng0f2mb-iECT-4" value="salario bruto &amp;gt; $5000?" style="rhombus;whiteSpace=wrap;html=1;" vertex="1" parent="1">
          <mxGeometry x="358" y="260" width="135" height="120" as="geometry" />
        </mxCell>
        <mxCell id="1xlKALd2Ng0f2mb-iECT-6" value="Calcular impuesto = salario * 0.10" style="whiteSpace=wrap;html=1;" vertex="1" parent="1">
          <mxGeometry x="570" y="440" width="120" height="60" as="geometry" />
        </mxCell>
        <mxCell id="1xlKALd2Ng0f2mb-iECT-8" value="No" style="text;html=1;align=center;verticalAlign=middle;whiteSpace=wrap;rounded=0;" vertex="1" parent="1">
          <mxGeometry x="520" y="300" width="60" height="30" as="geometry" />
        </mxCell>
        <mxCell id="1xlKALd2Ng0f2mb-iECT-11" value="Calcular impuesto = salario * 0.20" style="whiteSpace=wrap;html=1;" vertex="1" parent="1">
          <mxGeometry x="130" y="440" width="120" height="60" as="geometry" />
        </mxCell>
        <mxCell id="1xlKALd2Ng0f2mb-iECT-13" value="Si" style="text;html=1;align=center;verticalAlign=middle;whiteSpace=wrap;rounded=0;" vertex="1" parent="1">
          <mxGeometry x="260" y="300" width="60" height="30" as="geometry" />
        </mxCell>
        <mxCell id="1xlKALd2Ng0f2mb-iECT-19" value="" style="edgeStyle=orthogonalEdgeStyle;rounded=0;orthogonalLoop=1;jettySize=auto;html=1;" edge="1" parent="1" source="1xlKALd2Ng0f2mb-iECT-15" target="1xlKALd2Ng0f2mb-iECT-18">
          <mxGeometry relative="1" as="geometry" />
        </mxCell>
        <mxCell id="1xlKALd2Ng0f2mb-iECT-15" value="Calcular salario neto = salario bruto - impuesto" style="rounded=0;whiteSpace=wrap;html=1;" vertex="1" parent="1">
          <mxGeometry x="348" y="560" width="155" height="60" as="geometry" />
        </mxCell>
        <mxCell id="1xlKALd2Ng0f2mb-iECT-16" value="" style="endArrow=classic;html=1;rounded=0;exitX=0.5;exitY=1;exitDx=0;exitDy=0;" edge="1" parent="1" source="1xlKALd2Ng0f2mb-iECT-11">
          <mxGeometry width="50" height="50" relative="1" as="geometry">
            <mxPoint x="298" y="650" as="sourcePoint" />
            <mxPoint x="348" y="600" as="targetPoint" />
            <Array as="points">
              <mxPoint x="190" y="600" />
            </Array>
          </mxGeometry>
        </mxCell>
        <mxCell id="1xlKALd2Ng0f2mb-iECT-17" value="" style="endArrow=classic;html=1;rounded=0;entryX=0.996;entryY=0.614;entryDx=0;entryDy=0;entryPerimeter=0;exitX=0.5;exitY=1;exitDx=0;exitDy=0;" edge="1" parent="1" source="1xlKALd2Ng0f2mb-iECT-6" target="1xlKALd2Ng0f2mb-iECT-15">
          <mxGeometry width="50" height="50" relative="1" as="geometry">
            <mxPoint x="580" y="580" as="sourcePoint" />
            <mxPoint x="630" y="530" as="targetPoint" />
            <Array as="points">
              <mxPoint x="630" y="597" />
            </Array>
          </mxGeometry>
        </mxCell>
        <mxCell id="1xlKALd2Ng0f2mb-iECT-21" value="" style="edgeStyle=orthogonalEdgeStyle;rounded=0;orthogonalLoop=1;jettySize=auto;html=1;" edge="1" parent="1" source="1xlKALd2Ng0f2mb-iECT-18" target="1xlKALd2Ng0f2mb-iECT-20">
          <mxGeometry relative="1" as="geometry" />
        </mxCell>
        <mxCell id="1xlKALd2Ng0f2mb-iECT-18" value="Mostrar salario bruto" style="whiteSpace=wrap;html=1;rounded=0;" vertex="1" parent="1">
          <mxGeometry x="365" y="670" width="120" height="60" as="geometry" />
        </mxCell>
        <mxCell id="1xlKALd2Ng0f2mb-iECT-20" value="Fin" style="ellipse;whiteSpace=wrap;html=1;rounded=0;" vertex="1" parent="1">
          <mxGeometry x="358" y="790" width="135" height="80" as="geometry" />
        </mxCell>
      </root>
    </mxGraphModel>
  </diagram>
</mxfile>
